<svg version="1.1" id="Layer_1" xmlns="http://www.w3.org/2000/svg" xmlns:xlink="http://www.w3.org/1999/xlink" x="0px" y="0px"
	 width="100%" viewBox="0 0 1024 1024" enable-background="new 0 0 1024 1024" xml:space="preserve">
<path fill="#FCFDFD" opacity="1.000000" stroke="none" 
	d="
M655.000000,1025.000000 
	C436.666656,1025.000000 218.833328,1025.000000 1.000000,1025.000000 
	C1.000000,683.666687 1.000000,342.333344 1.000000,1.000000 
	C342.333344,1.000000 683.666687,1.000000 1025.000000,1.000000 
	C1025.000000,342.333344 1025.000000,683.666687 1025.000000,1025.000000 
	C901.833313,1025.000000 778.666687,1025.000000 655.000000,1025.000000 
M511.500488,158.728439 
	C455.515198,158.353577 402.725952,171.619019 352.626038,196.155212 
	C295.477905,224.143234 248.718170,264.399017 212.297821,316.483704 
	C180.030991,362.628448 160.827057,413.813171 153.593170,469.740997 
	C147.898575,513.767883 149.755035,557.330505 160.652161,600.198914 
	C185.079422,696.293945 240.941345,769.879089 325.080292,821.222900 
	C401.590729,867.911438 484.858795,883.263062 573.299377,866.951111 
	C647.614624,853.244446 711.275635,818.654724 764.033508,764.913696 
	C824.512756,703.307495 858.917175,629.149048 866.185608,542.848572 
	C870.690247,489.363678 863.066772,437.493073 843.489014,387.569305 
	C820.623657,329.261993 784.342163,280.305756 735.871704,241.010696 
	C670.954956,188.382599 596.719238,159.654739 511.500488,158.728439 
z"/>
<path fill="#273B52" opacity="1.000000" stroke="none" 
	d="
M512.000610,158.730347 
	C596.719238,159.654739 670.954956,188.382599 735.871704,241.010696 
	C784.342163,280.305756 820.623657,329.261993 843.489014,387.569305 
	C863.066772,437.493073 870.690247,489.363678 866.185608,542.848572 
	C858.917175,629.149048 824.512756,703.307495 764.033508,764.913696 
	C711.275635,818.654724 647.614624,853.244446 573.299377,866.951111 
	C484.858795,883.263062 401.590729,867.911438 325.080292,821.222900 
	C240.941345,769.879089 185.079422,696.293945 160.652161,600.198914 
	C149.755035,557.330505 147.898575,513.767883 153.593170,469.740997 
	C160.827057,413.813171 180.030991,362.628448 212.297821,316.483704 
	C248.718170,264.399017 295.477905,224.143234 352.626038,196.155212 
	C402.725952,171.619019 455.515198,158.353577 512.000610,158.730347 
M319.230164,762.276733 
	C336.513855,778.633362 357.375916,786.193848 380.851410,786.822571 
	C409.469543,787.589050 436.569519,780.515747 462.877014,769.946472 
	C498.423523,755.665344 529.872803,734.534180 560.209412,711.529175 
	C581.823792,695.138428 603.094482,678.209839 627.429016,665.816040 
	C642.191650,658.297302 657.686401,652.946655 674.053711,650.130798 
	C678.093750,649.435730 680.699585,650.033020 681.583862,654.612427 
	C682.464783,659.174683 684.612305,663.601318 684.854126,668.159058 
	C685.858215,687.087219 686.294678,706.044800 687.086609,724.985474 
	C687.227356,728.353760 685.953186,730.471252 683.405090,732.546204 
	C649.787048,759.919434 612.257690,779.321899 569.574829,787.891479 
	C554.909668,790.835876 539.934814,792.227783 525.250305,795.092102 
	C521.246460,795.873047 516.943848,798.717346 514.273682,801.878052 
	C510.484711,806.363098 510.825775,812.162109 513.721863,817.365173 
	C516.634033,822.597168 521.190857,825.475769 527.284485,824.895813 
	C535.728027,824.092224 544.147400,823.011780 552.562805,821.937744 
	C580.460815,818.376953 607.379272,811.181091 633.033081,799.603455 
	C677.160828,779.688538 713.665649,749.439575 747.119934,715.073730 
	C763.540100,698.206116 775.914856,678.486450 787.418152,658.175110 
	C792.143616,649.831360 789.043945,640.669983 780.595093,636.067444 
	C773.312012,632.099976 765.022949,634.789490 760.159119,642.755554 
	C759.033142,644.599670 758.016113,646.518738 757.066833,648.460938 
	C749.557190,663.825745 739.777832,677.651611 728.539185,690.475708 
	C725.319214,694.149841 721.893982,697.644165 717.831299,702.006531 
	C717.151489,691.902649 716.797302,683.306396 715.959167,674.757690 
	C712.292542,637.359253 696.776367,605.727905 668.901306,580.485107 
	C645.039246,558.876282 616.595276,545.901123 585.666260,538.007874 
	C575.511047,535.416260 567.382202,538.579407 561.257324,547.166931 
	C545.134766,569.771729 526.918335,590.449036 505.410797,608.156372 
	C461.089630,644.646301 411.290985,668.757446 353.808014,675.559509 
	C346.637604,676.408020 339.394073,676.638794 332.085083,677.162903 
	C332.085083,675.051819 331.933838,673.868347 332.107574,672.734741 
	C335.136993,652.967712 342.129486,634.831116 354.563751,619.008606 
	C369.780365,599.645630 389.864380,586.869568 411.980072,576.891541 
	C420.617584,572.994507 429.570648,569.679016 437.847443,565.129700 
	C448.775421,559.123169 448.458466,544.746582 437.748840,538.754700 
	C432.749268,535.957520 427.702759,536.757446 422.850922,538.927490 
	C409.487244,544.904419 395.886169,550.455505 382.945282,557.253174 
	C343.504059,577.970947 317.046234,609.486328 305.668488,652.955811 
	C303.794952,660.113953 302.696716,667.474976 301.234802,674.768799 
	C300.374237,674.768799 299.695526,674.878113 299.063202,674.753113 
	C275.672119,670.126892 257.499176,658.376343 246.587143,636.545715 
	C244.738281,632.846863 242.604889,629.171875 239.975983,626.006653 
	C235.024567,620.045166 226.615463,619.148254 220.084305,623.380676 
	C213.936218,627.364746 210.893524,635.965271 214.536041,642.243347 
	C222.384903,655.771301 230.541183,669.204651 242.186310,679.957153 
	C257.632629,694.219421 276.505432,701.203796 296.792084,704.921692 
	C299.600861,705.436523 300.677612,706.283508 300.557220,709.362488 
	C300.369110,714.171753 300.672974,719.026062 301.114685,723.829407 
	C302.467987,738.545776 307.148590,751.777710 319.230164,762.276733 
M551.841736,514.394958 
	C609.664856,482.968384 620.955200,407.751007 574.656006,362.403015 
	C542.986816,331.384430 494.477875,326.657013 456.646271,352.276581 
	C401.725769,389.468842 401.774261,465.674652 450.864044,504.190887 
	C481.537231,528.257324 515.748474,530.095581 551.841736,514.394958 
M724.186768,415.835876 
	C729.139099,405.709991 737.518677,399.911560 748.136414,397.045135 
	C753.102051,395.704559 758.227356,394.888947 763.088806,393.262878 
	C764.962280,392.636230 766.304199,390.420380 767.888306,388.928619 
	C766.325867,387.373322 765.028198,385.170746 763.144653,384.400543 
	C759.481689,382.902710 755.509949,382.125580 751.631165,381.195801 
	C736.642639,377.603088 726.595825,368.679077 721.823425,353.914246 
	C720.597839,350.122528 719.373901,346.285370 717.619873,342.730225 
	C716.860168,341.190430 714.650085,339.259888 713.295227,339.400391 
	C711.606384,339.575562 709.563538,341.406891 708.675110,343.061005 
	C707.285889,345.647705 706.617493,348.654114 705.852295,351.538025 
	C701.761536,366.955505 692.010986,376.519348 676.510071,380.326324 
	C671.507141,381.555023 666.500916,382.874634 661.665955,384.622192 
	C660.130371,385.177216 658.127991,387.290741 658.178955,388.620636 
	C658.235168,390.086639 660.150574,392.201874 661.707886,392.749542 
	C665.753723,394.172241 670.030762,394.967346 674.245056,395.876190 
	C690.395996,399.359253 701.542969,408.300385 705.990662,424.682526 
	C706.598816,426.922363 707.100220,429.332764 708.328369,431.224396 
	C709.660217,433.275879 711.784546,434.812897 713.563293,436.574219 
	C715.351929,434.767578 717.815857,433.263855 718.790039,431.091888 
	C720.887207,426.416077 722.217834,421.396423 724.186768,415.835876 
M281.058807,463.889862 
	C282.220795,463.957245 283.382996,464.087036 284.544708,464.082275 
	C295.268707,464.038239 303.530396,455.998016 303.465210,445.694244 
	C303.399841,435.362732 294.537903,426.840515 284.041931,427.015503 
	C275.247864,427.162140 267.407379,433.743652 266.050171,442.118286 
	C264.454315,451.965485 269.865082,460.203278 281.058807,463.889862 
M359.901215,269.414429 
	C358.857635,271.275238 357.501465,273.030426 356.829987,275.016998 
	C354.938049,280.614410 356.328400,285.596191 360.701172,289.494843 
	C364.888367,293.228027 369.806305,294.189697 375.071259,291.969727 
	C380.577026,289.648132 383.646362,284.888458 383.445923,278.993500 
	C383.268463,273.774109 380.917664,269.579315 376.290131,267.195374 
	C370.787323,264.360504 365.354950,264.893616 359.901215,269.414429 
z"/>
<path fill="#F8F1E8" opacity="1.000000" stroke="none" 
	d="
M318.971191,762.032288 
	C307.148590,751.777710 302.467987,738.545776 301.114685,723.829407 
	C300.672974,719.026062 300.369110,714.171753 300.557220,709.362488 
	C300.677612,706.283508 299.600861,705.436523 296.792084,704.921692 
	C276.505432,701.203796 257.632629,694.219421 242.186310,679.957153 
	C230.541183,669.204651 222.384903,655.771301 214.536041,642.243347 
	C210.893524,635.965271 213.936218,627.364746 220.084305,623.380676 
	C226.615463,619.148254 235.024567,620.045166 239.975983,626.006653 
	C242.604889,629.171875 244.738281,632.846863 246.587143,636.545715 
	C257.499176,658.376343 275.672119,670.126892 299.063202,674.753113 
	C299.695526,674.878113 300.374237,674.768799 301.234802,674.768799 
	C302.696716,667.474976 303.794952,660.113953 305.668488,652.955811 
	C317.046234,609.486328 343.504059,577.970947 382.945282,557.253174 
	C395.886169,550.455505 409.487244,544.904419 422.850922,538.927490 
	C427.702759,536.757446 432.749268,535.957520 437.748840,538.754700 
	C448.458466,544.746582 448.775421,559.123169 437.847443,565.129700 
	C429.570648,569.679016 420.617584,572.994507 411.980072,576.891541 
	C389.864380,586.869568 369.780365,599.645630 354.563751,619.008606 
	C342.129486,634.831116 335.136993,652.967712 332.107574,672.734741 
	C331.933838,673.868347 332.085083,675.051819 332.085083,677.162903 
	C339.394073,676.638794 346.637604,676.408020 353.808014,675.559509 
	C411.290985,668.757446 461.089630,644.646301 505.410797,608.156372 
	C526.918335,590.449036 545.134766,569.771729 561.257324,547.166931 
	C567.382202,538.579407 575.511047,535.416260 585.666260,538.007874 
	C616.595276,545.901123 645.039246,558.876282 668.901306,580.485107 
	C696.776367,605.727905 712.292542,637.359253 715.959167,674.757690 
	C716.797302,683.306396 717.151489,691.902649 717.831299,702.006531 
	C721.893982,697.644165 725.319214,694.149841 728.539185,690.475708 
	C739.777832,677.651611 749.557190,663.825745 757.066833,648.460938 
	C758.016113,646.518738 759.033142,644.599670 760.159119,642.755554 
	C765.022949,634.789490 773.312012,632.099976 780.595093,636.067444 
	C789.043945,640.669983 792.143616,649.831360 787.418152,658.175110 
	C775.914856,678.486450 763.540100,698.206116 747.119934,715.073730 
	C713.665649,749.439575 677.160828,779.688538 633.033081,799.603455 
	C607.379272,811.181091 580.460815,818.376953 552.562805,821.937744 
	C544.147400,823.011780 535.728027,824.092224 527.284485,824.895813 
	C521.190857,825.475769 516.634033,822.597168 513.721863,817.365173 
	C510.825775,812.162109 510.484711,806.363098 514.273682,801.878052 
	C516.943848,798.717346 521.246460,795.873047 525.250305,795.092102 
	C539.934814,792.227783 554.909668,790.835876 569.574829,787.891479 
	C612.257690,779.321899 649.787048,759.919434 683.405090,732.546204 
	C685.953186,730.471252 687.227356,728.353760 687.086609,724.985474 
	C686.294678,706.044800 685.858215,687.087219 684.854126,668.159058 
	C684.612305,663.601318 682.464783,659.174683 681.583862,654.612427 
	C680.699585,650.033020 678.093750,649.435730 674.053711,650.130798 
	C657.686401,652.946655 642.191650,658.297302 627.429016,665.816040 
	C603.094482,678.209839 581.823792,695.138428 560.209412,711.529175 
	C529.872803,734.534180 498.423523,755.665344 462.877014,769.946472 
	C436.569519,780.515747 409.469543,787.589050 380.851410,786.822571 
	C357.375916,786.193848 336.513855,778.633362 318.971191,762.032288 
M404.945221,754.503052 
	C414.975067,752.125305 425.181244,750.315735 435.003204,747.267883 
	C470.788513,736.163635 502.023285,716.502441 531.936707,694.542664 
	C545.756531,684.397461 559.226013,673.775391 573.033447,663.612732 
	C600.625854,643.303955 630.298340,627.309265 664.907959,620.461731 
	C663.509949,618.495789 662.427124,616.668945 661.056824,615.091980 
	C641.313904,592.372559 616.461670,578.061035 587.547363,570.374390 
	C584.165344,569.475342 582.185913,570.195984 580.061768,573.110535 
	C553.117554,610.080933 519.766479,640.019165 480.535095,663.508545 
	C441.280670,687.011902 399.218658,702.076782 353.479187,706.192200 
	C345.750000,706.887634 337.985931,707.195312 330.271515,707.679993 
	C329.902039,732.507263 334.319977,742.047852 358.249176,751.668396 
	C373.062469,757.623962 388.585052,756.981018 404.945221,754.503052 
z"/>
<path fill="#F8F1E8" opacity="1.000000" stroke="none" 
	d="
M551.508240,514.568665 
	C515.748474,530.095581 481.537231,528.257324 450.864044,504.190887 
	C401.774261,465.674652 401.725769,389.468842 456.646271,352.276581 
	C494.477875,326.657013 542.986816,331.384430 574.656006,362.403015 
	C620.955200,407.751007 609.664856,482.968384 551.508240,514.568665 
M482.498993,371.899567 
	C468.324158,378.402710 457.534760,388.651764 451.127136,402.746857 
	C441.104187,424.794708 442.086639,446.566681 456.098846,466.738312 
	C470.393585,487.316681 490.440125,496.759308 515.475403,494.191864 
	C553.980225,490.243073 580.127686,455.138397 572.542114,418.116211 
	C564.126709,377.043732 523.038513,355.634277 482.498993,371.899567 
z"/>
<path fill="#F7F0E8" opacity="1.000000" stroke="none" 
	d="
M724.024475,416.176697 
	C722.217834,421.396423 720.887207,426.416077 718.790039,431.091888 
	C717.815857,433.263855 715.351929,434.767578 713.563293,436.574219 
	C711.784546,434.812897 709.660217,433.275879 708.328369,431.224396 
	C707.100220,429.332764 706.598816,426.922363 705.990662,424.682526 
	C701.542969,408.300385 690.395996,399.359253 674.245056,395.876190 
	C670.030762,394.967346 665.753723,394.172241 661.707886,392.749542 
	C660.150574,392.201874 658.235168,390.086639 658.178955,388.620636 
	C658.127991,387.290741 660.130371,385.177216 661.665955,384.622192 
	C666.500916,382.874634 671.507141,381.555023 676.510071,380.326324 
	C692.010986,376.519348 701.761536,366.955505 705.852295,351.538025 
	C706.617493,348.654114 707.285889,345.647705 708.675110,343.061005 
	C709.563538,341.406891 711.606384,339.575562 713.295227,339.400391 
	C714.650085,339.259888 716.860168,341.190430 717.619873,342.730225 
	C719.373901,346.285370 720.597839,350.122528 721.823425,353.914246 
	C726.595825,368.679077 736.642639,377.603088 751.631165,381.195801 
	C755.509949,382.125580 759.481689,382.902710 763.144653,384.400543 
	C765.028198,385.170746 766.325867,387.373322 767.888306,388.928650 
	C766.304199,390.420380 764.962280,392.636230 763.088806,393.262878 
	C758.227356,394.888947 753.102051,395.704559 748.136414,397.045135 
	C737.518677,399.911560 729.139099,405.709991 724.024475,416.176697 
z"/>
<path fill="#F6F0E7" opacity="1.000000" stroke="none" 
	d="
M280.646729,463.801880 
	C269.865082,460.203278 264.454315,451.965485 266.050171,442.118286 
	C267.407379,433.743652 275.247864,427.162140 284.041931,427.015503 
	C294.537903,426.840515 303.399841,435.362732 303.465210,445.694244 
	C303.530396,455.998016 295.268707,464.038239 284.544708,464.082275 
	C283.382996,464.087036 282.220795,463.957245 280.646729,463.801880 
z"/>
<path fill="#F4F0E7" opacity="1.000000" stroke="none" 
	d="
M360.171021,269.156281 
	C365.354950,264.893616 370.787323,264.360504 376.290131,267.195374 
	C380.917664,269.579315 383.268463,273.774109 383.445923,278.993500 
	C383.646362,284.888458 380.577026,289.648132 375.071259,291.969727 
	C369.806305,294.189697 364.888367,293.228027 360.701172,289.494843 
	C356.328400,285.596191 354.938049,280.614410 356.829987,275.016998 
	C357.501465,273.030426 358.857635,271.275238 360.171021,269.156281 
z"/>
<path fill="#283C52" opacity="1.000000" stroke="none" 
	d="
M404.514648,754.595703 
	C388.585052,756.981018 373.062469,757.623962 358.249176,751.668396 
	C334.319977,742.047852 329.902039,732.507263 330.271515,707.679993 
	C337.985931,707.195312 345.750000,706.887634 353.479187,706.192200 
	C399.218658,702.076782 441.280670,687.011902 480.535095,663.508545 
	C519.766479,640.019165 553.117554,610.080933 580.061768,573.110535 
	C582.185913,570.195984 584.165344,569.475342 587.547363,570.374390 
	C616.461670,578.061035 641.313904,592.372559 661.056824,615.091980 
	C662.427124,616.668945 663.509949,618.495789 664.907959,620.461731 
	C630.298340,627.309265 600.625854,643.303955 573.033447,663.612732 
	C559.226013,673.775391 545.756531,684.397461 531.936707,694.542664 
	C502.023285,716.502441 470.788513,736.163635 435.003204,747.267883 
	C425.181244,750.315735 414.975067,752.125305 404.514648,754.595703 
z"/>
<path fill="#273B52" opacity="1.000000" stroke="none" 
	d="
M482.839142,371.726135 
	C523.038513,355.634277 564.126709,377.043732 572.542114,418.116211 
	C580.127686,455.138397 553.980225,490.243073 515.475403,494.191864 
	C490.440125,496.759308 470.393585,487.316681 456.098846,466.738312 
	C442.086639,446.566681 441.104187,424.794708 451.127136,402.746857 
	C457.534760,388.651764 468.324158,378.402710 482.839142,371.726135 
z"/>
</svg>